<svg width="25" height="27" viewBox="0 0 25 27" fill="none" xmlns="http://www.w3.org/2000/svg">
<path d="M2.75547 24.5368H8.10947V16.2631C8.10947 15.8427 8.248 15.4902 8.52507 15.2055C8.8024 14.9212 9.14587 14.779 9.55547 14.779H15.1555C15.5651 14.779 15.9085 14.9212 16.1859 15.2055C16.4629 15.4902 16.6015 15.8427 16.6015 16.2631V24.5368H21.9555V10.0103C21.9555 9.92629 21.9375 9.85007 21.9015 9.78165C21.8657 9.71322 21.8171 9.6526 21.7555 9.59978L12.6479 2.5736C12.5657 2.49998 12.4683 2.46317 12.3555 2.46317C12.2427 2.46317 12.1452 2.49998 12.0631 2.5736L2.95547 9.59978C2.89387 9.6526 2.8452 9.71322 2.80947 9.78165C2.77347 9.85007 2.75547 9.92629 2.75547 10.0103V24.5368ZM0.355469 24.5368V10.0103C0.355469 9.54039 0.457868 9.09524 0.662668 8.67486C0.867735 8.25421 1.15094 7.90786 1.51227 7.63582L10.6203 0.593624C11.1256 0.197875 11.7032 0 12.3531 0C13.0029 0 13.5821 0.197875 14.0907 0.593624L23.1987 7.63582C23.56 7.90786 23.8432 8.25421 24.0483 8.67486C24.2531 9.09524 24.3555 9.54039 24.3555 10.0103V24.5368C24.3555 25.2085 24.1191 25.7869 23.6463 26.2721C23.1735 26.7574 22.6099 27 21.9555 27H15.6479C15.238 27 14.8945 26.8577 14.6175 26.5731C14.3401 26.2887 14.2015 25.9362 14.2015 25.5155V17.2422H10.5095V25.5155C10.5095 25.9362 10.3708 26.2887 10.0935 26.5731C9.8164 26.8577 9.47294 27 9.06307 27H2.75547C2.10107 27 1.53747 26.7574 1.06467 26.2721C0.591869 25.7869 0.355469 25.2085 0.355469 24.5368Z" fill="#FEF4F6"/>
</svg>
