<svg width="27" height="30" viewBox="0 0 27 30" fill="none" xmlns="http://www.w3.org/2000/svg">
<path id="Vector" d="M26.3333 22.0107C25.6241 23.5723 25.2824 24.2704 24.3702 25.6486C23.0932 27.5745 21.292 29.9794 19.0669 29.9947C17.0858 30.0125 16.5745 28.7133 13.8843 28.7362C11.1967 28.7489 10.6365 30.0201 8.65293 29.9998C6.42522 29.9794 4.72168 27.814 3.44467 25.8906C-0.126852 20.4975 -0.504559 14.1745 1.70259 10.8117C3.26481 8.42724 5.73404 7.0261 8.05425 7.0261C10.4181 7.0261 11.9033 8.3126 13.856 8.3126C15.7523 8.3126 16.906 7.02355 19.6399 7.02355C21.7057 7.02355 23.8897 8.13937 25.4519 10.0653C20.3439 12.8421 21.1738 20.0746 26.3333 22.0107ZM17.5637 4.87088C18.5581 3.60476 19.3135 1.81894 19.0386 0C17.4173 0.109544 15.521 1.1362 14.4136 2.46601C13.409 3.67864 12.5765 5.4772 12.9002 7.21716C14.6706 7.27321 16.5026 6.22617 17.5637 4.87088Z" fill="#353A3F"/>
</svg>
